<svg width="895" height="414" viewBox="0 0 895 414" fill="none" xmlns="http://www.w3.org/2000/svg">
<path d="M475.372 241L481.716 243.959L460.5 288.976L460.5 272L475.372 241Z" fill="url(#paint0_linear_1011_470)"/>
<path d="M475.372 241L481.716 243.959L460.5 288.976L460.5 272L475.372 241Z" fill="url(#paint1_linear_1011_470)"/>
<path d="M419.147 251.149L424.097 246.199L441 262L449 271L449 289C434 262 419.147 251.149 419.147 251.149Z" fill="url(#paint2_linear_1011_470)"/>
<path d="M444 146H453V289H444V146Z" fill="url(#paint3_linear_1011_470)"/>
<path d="M470.5 199L475 203L467 245L463 289.262L454.195 289.262L459.195 243.5L470.5 199Z" fill="url(#paint4_linear_1011_470)"/>
<path d="M470.5 199L475 203L467 245L463 289.262L454.195 289.262L459.195 243.5L470.5 199Z" fill="url(#paint5_linear_1011_470)"/>
<path d="M404.25 146L404.25 135C419.871 155.112 437 163.5 444.25 186.5L444.25 197.5C444.25 197.5 435.81 179.556 428 169.5C420.19 159.444 404.25 146 404.25 146Z" fill="url(#paint6_linear_1011_470)"/>
<path d="M409.09 106.202C407.735 104.45 407 102.298 407 100.084V76.1776C407 74.1101 407.641 72.0935 408.834 70.4052L439.884 26.4817C443.854 20.8646 452.179 20.8408 456.182 26.4351L487.633 70.3901C488.847 72.0874 489.5 74.1221 489.5 76.2091V100.051C489.5 102.286 488.751 104.456 487.373 106.216L455.921 146.384C451.903 151.516 444.127 151.493 440.138 146.337L409.09 106.202Z" fill="url(#paint7_linear_1011_470)"/>
<path d="M363.968 247.348C361.771 247.068 359.729 246.066 358.163 244.5L341.259 227.596C339.797 226.134 338.824 224.254 338.474 222.217L329.371 169.203C328.207 162.423 334.077 156.52 340.863 157.645L394.183 166.487C396.241 166.829 398.142 167.806 399.618 169.282L416.476 186.14C418.057 187.72 419.062 189.785 419.332 192.003L425.495 242.646C426.282 249.117 420.768 254.599 414.302 253.774L363.968 247.348Z" fill="url(#paint8_linear_1011_470)"/>
<path d="M477.044 191.968C477.325 189.771 478.326 187.729 479.893 186.163L496.797 169.259C498.258 167.797 500.138 166.824 502.175 166.474L555.189 157.371C561.969 156.207 567.872 162.077 566.747 168.863L557.905 222.183C557.563 224.241 556.586 226.142 555.111 227.618L538.252 244.476C536.672 246.057 534.608 247.062 532.389 247.332L481.746 253.495C475.275 254.282 469.793 248.768 470.618 242.302L477.044 191.968Z" fill="url(#paint9_linear_1011_470)"/>
<path d="M476.991 147.968C477.271 145.771 478.273 143.729 479.839 142.163L496.743 125.259C498.205 123.797 500.084 122.824 502.122 122.474L555.136 113.371C561.915 112.207 567.819 118.077 566.694 124.863L557.852 178.183C557.51 180.241 556.533 182.142 555.057 183.618L538.199 200.476C536.618 202.057 534.554 203.062 532.336 203.332L481.693 209.495C475.222 210.282 469.74 204.768 470.565 198.302L476.991 147.968Z" fill="url(#paint10_linear_1011_470)"/>
<path d="M105.058 372.2C105.058 381.725 106.848 389.072 110.427 394.24C114.103 399.307 119.713 401.84 127.258 401.84C130.546 401.84 133.787 401.435 136.979 400.624C140.171 399.813 143.992 398.395 148.441 396.368L152.649 407.616C147.909 409.845 143.411 411.467 139.155 412.48C134.899 413.493 130.788 414 126.822 414C115.408 414 106.751 410.251 100.851 402.752C94.9502 395.253 92 385.069 92 372.2V349.4C92 336.531 94.9502 326.347 100.851 318.848C106.751 311.349 115.408 307.6 126.822 307.6C130.788 307.6 134.899 308.107 139.155 309.12C143.508 310.133 147.909 311.755 152.359 313.984L148.296 325.384C140.461 321.736 133.448 319.912 127.258 319.912C119.713 319.912 114.103 322.445 110.427 327.512C106.848 332.579 105.058 339.875 105.058 349.4V372.2Z" fill="#137500"/>
<path d="M222.924 413.24C218.474 413.24 214.895 412.176 212.187 410.048C209.575 407.92 207.737 405.285 206.673 402.144C201.934 406.501 197.629 409.592 193.76 411.416C189.891 413.139 186.022 414 182.153 414C175.865 414 171.222 411.872 168.224 407.616C165.225 403.36 163.726 398.141 163.726 391.96C163.726 387.805 164.451 384.107 165.902 380.864C167.353 377.621 169.82 375.088 173.302 373.264C176.784 371.339 181.476 370.376 187.376 370.376C189.988 370.376 192.841 370.579 195.936 370.984C199.032 371.288 202.175 371.693 205.368 372.2V362.016C205.368 356.341 204.158 352.491 201.74 350.464C199.419 348.336 195.985 347.272 191.439 347.272C185.248 347.272 178.332 349.045 170.69 352.592L166.918 342.256C171.367 340.128 175.623 338.507 179.686 337.392C183.749 336.277 187.86 335.72 192.019 335.72C198.79 335.72 203.965 336.885 207.544 339.216C211.123 341.547 213.589 344.637 214.944 348.488C216.298 352.339 216.975 356.544 216.975 361.104V393.632C216.975 395.963 217.41 397.939 218.281 399.56C219.151 401.08 220.892 401.84 223.504 401.84H225.1V413.24H222.924ZM175.478 391.808C175.478 395.253 176.252 398.04 177.8 400.168C179.348 402.296 181.572 403.36 184.474 403.36C186.989 403.36 189.891 402.6 193.18 401.08C196.468 399.459 200.531 396.267 205.368 391.504V381.928C198.79 380.813 192.986 380.256 187.956 380.256C183.507 380.256 180.315 381.219 178.38 383.144C176.446 385.069 175.478 387.957 175.478 391.808Z" fill="#137500"/>
<path d="M279.679 348.184C275.326 348.184 271.07 348.995 266.911 350.616C262.848 352.237 258.495 355.328 253.852 359.888V412.48H241.955V337.24H253.272V349.4C258.205 344.333 262.703 340.787 266.766 338.76C270.925 336.733 275.229 335.72 279.679 335.72V348.184Z" fill="#137500"/>
<path d="M353.268 379.344C353.268 389.883 350.753 398.293 345.723 404.576C340.694 410.859 333.294 414 323.524 414C313.851 414 304.275 411.315 294.796 405.944V300H306.693V347.424C311.046 343.168 315.012 340.179 318.591 338.456C322.267 336.632 325.991 335.72 329.763 335.72C337.308 335.72 343.112 338.76 347.174 344.84C351.237 350.92 353.268 359.483 353.268 370.528V379.344ZM326.861 347.424C324.153 347.424 321.251 348.184 318.156 349.704C315.157 351.224 311.336 354.365 306.693 359.128V398.952C312.4 401.485 317.769 402.752 322.799 402.752C329.28 402.752 333.923 400.675 336.728 396.52C339.533 392.264 340.935 386.539 340.935 379.344V370.528C340.935 362.624 339.775 356.797 337.453 353.048C335.132 349.299 331.601 347.424 326.861 347.424Z" fill="#137500"/>
<path d="M432.164 370.224V379.344C432.164 390.085 429.504 398.547 424.184 404.728C418.96 410.909 411.464 414 401.694 414C392.021 414 384.525 410.909 379.205 404.728C373.885 398.547 371.225 390.085 371.225 379.344V370.224C371.225 359.685 373.836 351.325 379.06 345.144C384.38 338.861 391.925 335.72 401.694 335.72C411.464 335.72 418.96 338.861 424.184 345.144C429.504 351.325 432.164 359.685 432.164 370.224ZM419.831 370.224C419.831 363.029 418.283 357.405 415.188 353.352C412.093 349.197 407.595 347.12 401.694 347.12C395.891 347.12 391.393 349.197 388.201 353.352C385.105 357.405 383.558 363.029 383.558 370.224V379.344C383.558 386.843 385.105 392.619 388.201 396.672C391.393 400.725 395.891 402.752 401.694 402.752C407.595 402.752 412.093 400.725 415.188 396.672C418.283 392.619 419.831 386.843 419.831 379.344V370.224Z" fill="#137500"/>
<path d="M488.317 347.424C485.609 347.424 482.417 348.133 478.741 349.552C475.162 350.971 470.809 353.859 465.683 358.216V412.48H453.785V337.24H465.102V347.728C470.229 343.168 474.872 340.027 479.031 338.304C483.287 336.581 487.35 335.72 491.219 335.72C497.893 335.72 502.971 337.949 506.454 342.408C510.033 346.765 511.822 352.997 511.822 361.104V412.48H499.924V362.928C499.924 352.592 496.055 347.424 488.317 347.424Z" fill="#137500"/>
<path d="M539.287 412.48V309.12H570.046C579.526 309.12 586.732 311.755 591.665 317.024C596.695 322.192 599.21 329.133 599.21 337.848V345.904C599.21 354.619 596.695 361.611 591.665 366.88C586.732 372.149 579.526 374.784 570.046 374.784H551.91V412.48H539.287ZM570.046 321.584H551.91V362.472H570.046C575.27 362.472 579.236 361.003 581.944 358.064C584.749 355.125 586.152 351.072 586.152 345.904V337.848C586.152 332.781 584.749 328.829 581.944 325.992C579.236 323.053 575.27 321.584 570.046 321.584Z" fill="#137500"/>
<path d="M670.813 413.24C666.364 413.24 662.785 412.176 660.077 410.048C657.465 407.92 655.627 405.285 654.563 402.144C649.823 406.501 645.519 409.592 641.65 411.416C637.781 413.139 633.911 414 630.042 414C623.755 414 619.112 411.872 616.113 407.616C613.115 403.36 611.615 398.141 611.615 391.96C611.615 387.805 612.341 384.107 613.792 380.864C615.243 377.621 617.709 375.088 621.192 373.264C624.674 371.339 629.365 370.376 635.266 370.376C637.877 370.376 640.731 370.579 643.826 370.984C646.921 371.288 650.065 371.693 653.257 372.2V362.016C653.257 356.341 652.048 352.491 649.63 350.464C647.308 348.336 643.874 347.272 639.328 347.272C633.138 347.272 626.222 349.045 618.58 352.592L614.808 342.256C619.257 340.128 623.513 338.507 627.576 337.392C631.638 336.277 635.749 335.72 639.909 335.72C646.68 335.72 651.855 336.885 655.434 339.216C659.013 341.547 661.479 344.637 662.833 348.488C664.188 352.339 664.865 356.544 664.865 361.104V393.632C664.865 395.963 665.3 397.939 666.17 399.56C667.041 401.08 668.782 401.84 671.394 401.84H672.99V413.24H670.813ZM623.368 391.808C623.368 395.253 624.142 398.04 625.69 400.168C627.237 402.296 629.462 403.36 632.364 403.36C634.879 403.36 637.781 402.6 641.069 401.08C644.358 399.459 648.421 396.267 653.257 391.504V381.928C646.68 380.813 640.876 380.256 635.846 380.256C631.397 380.256 628.204 381.219 626.27 383.144C624.335 385.069 623.368 387.957 623.368 391.808Z" fill="#137500"/>
<path d="M729.31 409.744C723.893 412.581 718.138 414 712.044 414C706.82 414 702.709 412.885 699.711 410.656C696.809 408.427 694.729 405.437 693.472 401.688C692.311 397.939 691.731 393.784 691.731 389.224V348.184H679.253V337.24H691.731V316.264H703.628V337.24H727.133V348.184H703.628V388.768C703.628 394.037 704.45 397.685 706.095 399.712C707.836 401.637 710.496 402.6 714.075 402.6C715.816 402.6 717.606 402.397 719.443 401.992C721.378 401.485 723.458 400.675 725.682 399.56L729.31 409.744Z" fill="#137500"/>
<path d="M779.495 347.424C776.787 347.424 773.594 348.133 769.919 349.552C766.34 350.971 761.987 353.859 756.86 358.216V412.48H744.963V300H756.86V347.272C761.89 342.813 766.437 339.773 770.499 338.152C774.562 336.531 778.528 335.72 782.397 335.72C789.071 335.72 794.149 337.949 797.632 342.408C801.21 346.765 803 352.997 803 361.104V412.48H791.102V362.928C791.102 352.592 787.233 347.424 779.495 347.424Z" fill="#137500"/>
<defs>
<linearGradient id="paint0_linear_1011_470" x1="475.5" y1="250.5" x2="456.172" y2="290.456" gradientUnits="userSpaceOnUse">
<stop stop-color="#1DB000"/>
<stop offset="1" stop-color="#0C4A00"/>
</linearGradient>
<linearGradient id="paint1_linear_1011_470" x1="475.5" y1="250.5" x2="456.172" y2="290.456" gradientUnits="userSpaceOnUse">
<stop stop-color="#1DB000"/>
<stop offset="1" stop-color="#0C4A00"/>
</linearGradient>
<linearGradient id="paint2_linear_1011_470" x1="423" y1="250" x2="451.475" y2="278.527" gradientUnits="userSpaceOnUse">
<stop stop-color="#1DB000"/>
<stop offset="1" stop-color="#0C4A00"/>
</linearGradient>
<linearGradient id="paint3_linear_1011_470" x1="449" y1="149.5" x2="448.5" y2="289" gradientUnits="userSpaceOnUse">
<stop stop-color="#1DB000"/>
<stop offset="1" stop-color="#0C4A00"/>
</linearGradient>
<linearGradient id="paint4_linear_1011_470" x1="473" y1="205" x2="441.97" y2="287.956" gradientUnits="userSpaceOnUse">
<stop stop-color="#1DB000"/>
<stop offset="1" stop-color="#0C4A00"/>
</linearGradient>
<linearGradient id="paint5_linear_1011_470" x1="473" y1="205" x2="441.97" y2="287.956" gradientUnits="userSpaceOnUse">
<stop stop-color="#1DB000"/>
<stop offset="1" stop-color="#0C4A00"/>
</linearGradient>
<linearGradient id="paint6_linear_1011_470" x1="398.625" y1="140.625" x2="449.875" y2="191.875" gradientUnits="userSpaceOnUse">
<stop stop-color="#1DB000"/>
<stop offset="1" stop-color="#0C4A00"/>
</linearGradient>
<linearGradient id="paint7_linear_1011_470" x1="448.25" y1="15" x2="448" y2="149.5" gradientUnits="userSpaceOnUse">
<stop stop-color="#0C4A00"/>
<stop offset="1" stop-color="#1DB000"/>
</linearGradient>
<linearGradient id="paint8_linear_1011_470" x1="395.5" y1="169.5" x2="377" y2="323" gradientUnits="userSpaceOnUse">
<stop stop-color="#0C4A00"/>
<stop offset="0.515871" stop-color="#1DB000"/>
</linearGradient>
<linearGradient id="paint9_linear_1011_470" x1="569.224" y1="155.168" x2="475" y2="251.5" gradientUnits="userSpaceOnUse">
<stop stop-color="#0C4A00"/>
<stop offset="1" stop-color="#1DB000"/>
</linearGradient>
<linearGradient id="paint10_linear_1011_470" x1="569.171" y1="111.168" x2="473.5" y2="206" gradientUnits="userSpaceOnUse">
<stop stop-color="#0C4A00"/>
<stop offset="0.9999" stop-color="#1DB000"/>
</linearGradient>
</defs>
</svg>
